<mxfile host="app.diagrams.net" modified="2024-05-14T05:27:47.808Z" agent="Mozilla/5.0 (Windows NT 10.0; Win64; x64) AppleWebKit/537.36 (KHTML, like Gecko) Chrome/124.0.0.0 Safari/537.36 Edg/124.0.0.0" etag="u12LE3PN-6nBogc4oYiQ" version="24.4.0" type="github">
  <diagram name="Página-1" id="0Frc0wLYxcDbPIDZYO3f">
    <mxGraphModel dx="1603" dy="888" grid="1" gridSize="10" guides="1" tooltips="1" connect="1" arrows="1" fold="1" page="1" pageScale="1" pageWidth="827" pageHeight="1169" math="0" shadow="0">
      <root>
        <mxCell id="0" />
        <mxCell id="1" parent="0" />
        <mxCell id="gZ8VsHPKAwq8TQSJoZsJ-20" style="rounded=0;orthogonalLoop=1;jettySize=auto;html=1;" parent="1" source="gZ8VsHPKAwq8TQSJoZsJ-1" target="gZ8VsHPKAwq8TQSJoZsJ-8" edge="1">
          <mxGeometry relative="1" as="geometry" />
        </mxCell>
        <mxCell id="gZ8VsHPKAwq8TQSJoZsJ-50" style="rounded=0;orthogonalLoop=1;jettySize=auto;html=1;" parent="1" source="gZ8VsHPKAwq8TQSJoZsJ-8" target="gZ8VsHPKAwq8TQSJoZsJ-44" edge="1">
          <mxGeometry relative="1" as="geometry" />
        </mxCell>
        <mxCell id="gZ8VsHPKAwq8TQSJoZsJ-1" value="GCNT GESTIÓN" style="rounded=1;whiteSpace=wrap;html=1;" parent="1" vertex="1">
          <mxGeometry x="40" y="160" width="120" height="60" as="geometry" />
        </mxCell>
        <mxCell id="gZ8VsHPKAwq8TQSJoZsJ-3" value="NUEVA PARTE" style="rounded=1;whiteSpace=wrap;html=1;" parent="1" vertex="1">
          <mxGeometry x="1121" y="240" width="120" height="60" as="geometry" />
        </mxCell>
        <mxCell id="gZ8VsHPKAwq8TQSJoZsJ-4" value="ORG JURIS" style="rounded=1;whiteSpace=wrap;html=1;" parent="1" vertex="1">
          <mxGeometry x="1121" y="160" width="120" height="60" as="geometry" />
        </mxCell>
        <mxCell id="gZ8VsHPKAwq8TQSJoZsJ-5" value="LETRADO COMISIÓN" style="rounded=1;whiteSpace=wrap;html=1;" parent="1" vertex="1">
          <mxGeometry x="1121" y="320" width="120" height="60" as="geometry" />
        </mxCell>
        <mxCell id="gZ8VsHPKAwq8TQSJoZsJ-6" value="NUEVO DOC" style="rounded=1;whiteSpace=wrap;html=1;" parent="1" vertex="1">
          <mxGeometry x="1121" y="400" width="120" height="60" as="geometry" />
        </mxCell>
        <mxCell id="gZ8VsHPKAwq8TQSJoZsJ-7" value="NUEVA ACTUACIÓN" style="rounded=1;whiteSpace=wrap;html=1;" parent="1" vertex="1">
          <mxGeometry x="1121" y="590" width="120" height="60" as="geometry" />
        </mxCell>
        <mxCell id="gZ8VsHPKAwq8TQSJoZsJ-9" style="rounded=0;orthogonalLoop=1;jettySize=auto;html=1;fillColor=#dae8fc;strokeColor=#6c8ebf;" parent="1" source="gZ8VsHPKAwq8TQSJoZsJ-8" target="gZ8VsHPKAwq8TQSJoZsJ-7" edge="1">
          <mxGeometry relative="1" as="geometry" />
        </mxCell>
        <mxCell id="gZ8VsHPKAwq8TQSJoZsJ-10" style="rounded=0;orthogonalLoop=1;jettySize=auto;html=1;fillColor=#dae8fc;strokeColor=#6c8ebf;" parent="1" source="gZ8VsHPKAwq8TQSJoZsJ-8" target="gZ8VsHPKAwq8TQSJoZsJ-6" edge="1">
          <mxGeometry relative="1" as="geometry" />
        </mxCell>
        <mxCell id="gZ8VsHPKAwq8TQSJoZsJ-11" style="rounded=0;orthogonalLoop=1;jettySize=auto;html=1;fillColor=#dae8fc;strokeColor=#6c8ebf;" parent="1" source="gZ8VsHPKAwq8TQSJoZsJ-8" target="gZ8VsHPKAwq8TQSJoZsJ-3" edge="1">
          <mxGeometry relative="1" as="geometry" />
        </mxCell>
        <mxCell id="gZ8VsHPKAwq8TQSJoZsJ-12" style="rounded=0;orthogonalLoop=1;jettySize=auto;html=1;fillColor=#dae8fc;strokeColor=#6c8ebf;" parent="1" source="gZ8VsHPKAwq8TQSJoZsJ-8" target="gZ8VsHPKAwq8TQSJoZsJ-4" edge="1">
          <mxGeometry relative="1" as="geometry" />
        </mxCell>
        <mxCell id="gZ8VsHPKAwq8TQSJoZsJ-13" style="rounded=0;orthogonalLoop=1;jettySize=auto;html=1;fillColor=#dae8fc;strokeColor=#6c8ebf;" parent="1" source="gZ8VsHPKAwq8TQSJoZsJ-8" target="gZ8VsHPKAwq8TQSJoZsJ-5" edge="1">
          <mxGeometry relative="1" as="geometry">
            <mxPoint x="400" y="270" as="sourcePoint" />
          </mxGeometry>
        </mxCell>
        <mxCell id="gZ8VsHPKAwq8TQSJoZsJ-22" style="rounded=0;orthogonalLoop=1;jettySize=auto;html=1;fillColor=#dae8fc;strokeColor=#6c8ebf;" parent="1" source="gZ8VsHPKAwq8TQSJoZsJ-8" target="gZ8VsHPKAwq8TQSJoZsJ-21" edge="1">
          <mxGeometry relative="1" as="geometry" />
        </mxCell>
        <mxCell id="gZ8VsHPKAwq8TQSJoZsJ-26" style="rounded=0;orthogonalLoop=1;jettySize=auto;html=1;fillColor=#f8cecc;strokeColor=#b85450;" parent="1" source="gZ8VsHPKAwq8TQSJoZsJ-44" target="gZ8VsHPKAwq8TQSJoZsJ-25" edge="1">
          <mxGeometry relative="1" as="geometry" />
        </mxCell>
        <mxCell id="gZ8VsHPKAwq8TQSJoZsJ-28" style="rounded=0;orthogonalLoop=1;jettySize=auto;html=1;fillColor=#dae8fc;strokeColor=#6c8ebf;" parent="1" source="gZ8VsHPKAwq8TQSJoZsJ-8" target="gZ8VsHPKAwq8TQSJoZsJ-27" edge="1">
          <mxGeometry relative="1" as="geometry" />
        </mxCell>
        <mxCell id="gZ8VsHPKAwq8TQSJoZsJ-60" style="rounded=0;orthogonalLoop=1;jettySize=auto;html=1;" parent="1" source="gZ8VsHPKAwq8TQSJoZsJ-8" target="gZ8VsHPKAwq8TQSJoZsJ-59" edge="1">
          <mxGeometry relative="1" as="geometry" />
        </mxCell>
        <mxCell id="gZ8VsHPKAwq8TQSJoZsJ-8" value="GCNT GESTIÓN" style="rounded=1;whiteSpace=wrap;html=1;" parent="1" vertex="1">
          <mxGeometry x="280" y="240" width="120" height="60" as="geometry" />
        </mxCell>
        <mxCell id="gZ8VsHPKAwq8TQSJoZsJ-24" style="rounded=0;orthogonalLoop=1;jettySize=auto;html=1;exitX=1;exitY=0.5;exitDx=0;exitDy=0;" parent="1" source="gZ8VsHPKAwq8TQSJoZsJ-21" target="gZ8VsHPKAwq8TQSJoZsJ-23" edge="1">
          <mxGeometry relative="1" as="geometry" />
        </mxCell>
        <mxCell id="gZ8VsHPKAwq8TQSJoZsJ-21" value="GCNT RESOLUCIÓN" style="rounded=1;whiteSpace=wrap;html=1;" parent="1" vertex="1">
          <mxGeometry x="280" y="830" width="120" height="60" as="geometry" />
        </mxCell>
        <mxCell id="gZ8VsHPKAwq8TQSJoZsJ-23" value="DETALLE CON" style="rounded=1;whiteSpace=wrap;html=1;" parent="1" vertex="1">
          <mxGeometry x="1121" y="830" width="120" height="60" as="geometry" />
        </mxCell>
        <mxCell id="gZ8VsHPKAwq8TQSJoZsJ-25" value="HISTÓRICO DE LETRADOS" style="rounded=1;whiteSpace=wrap;html=1;" parent="1" vertex="1">
          <mxGeometry x="1121" y="670" width="120" height="60" as="geometry" />
        </mxCell>
        <mxCell id="gZ8VsHPKAwq8TQSJoZsJ-27" value="ANTECEDENTES" style="rounded=1;whiteSpace=wrap;html=1;" parent="1" vertex="1">
          <mxGeometry x="1121" y="750" width="120" height="60" as="geometry" />
        </mxCell>
        <mxCell id="gZ8VsHPKAwq8TQSJoZsJ-43" style="rounded=0;orthogonalLoop=1;jettySize=auto;html=1;fillColor=#ffe6cc;strokeColor=#d79b00;" parent="1" source="gZ8VsHPKAwq8TQSJoZsJ-32" target="gZ8VsHPKAwq8TQSJoZsJ-42" edge="1">
          <mxGeometry relative="1" as="geometry" />
        </mxCell>
        <mxCell id="gZ8VsHPKAwq8TQSJoZsJ-38" style="rounded=0;orthogonalLoop=1;jettySize=auto;html=1;fillColor=#ffe6cc;strokeColor=#d79b00;" parent="1" source="gZ8VsHPKAwq8TQSJoZsJ-32" target="gZ8VsHPKAwq8TQSJoZsJ-25" edge="1">
          <mxGeometry relative="1" as="geometry" />
        </mxCell>
        <mxCell id="gZ8VsHPKAwq8TQSJoZsJ-39" style="rounded=0;orthogonalLoop=1;jettySize=auto;html=1;fillColor=#ffe6cc;strokeColor=#d79b00;" parent="1" source="gZ8VsHPKAwq8TQSJoZsJ-32" target="gZ8VsHPKAwq8TQSJoZsJ-27" edge="1">
          <mxGeometry relative="1" as="geometry" />
        </mxCell>
        <mxCell id="gZ8VsHPKAwq8TQSJoZsJ-51" style="rounded=0;orthogonalLoop=1;jettySize=auto;html=1;fillColor=#ffe6cc;strokeColor=#d79b00;" parent="1" source="gZ8VsHPKAwq8TQSJoZsJ-32" target="gZ8VsHPKAwq8TQSJoZsJ-44" edge="1">
          <mxGeometry relative="1" as="geometry" />
        </mxCell>
        <mxCell id="gZ8VsHPKAwq8TQSJoZsJ-52" style="rounded=0;orthogonalLoop=1;jettySize=auto;html=1;fillColor=#ffe6cc;strokeColor=#d79b00;" parent="1" source="gZ8VsHPKAwq8TQSJoZsJ-32" target="gZ8VsHPKAwq8TQSJoZsJ-3" edge="1">
          <mxGeometry relative="1" as="geometry" />
        </mxCell>
        <mxCell id="gZ8VsHPKAwq8TQSJoZsJ-53" style="rounded=0;orthogonalLoop=1;jettySize=auto;html=1;fillColor=#ffe6cc;strokeColor=#d79b00;" parent="1" source="gZ8VsHPKAwq8TQSJoZsJ-32" target="gZ8VsHPKAwq8TQSJoZsJ-4" edge="1">
          <mxGeometry relative="1" as="geometry" />
        </mxCell>
        <mxCell id="gZ8VsHPKAwq8TQSJoZsJ-32" value="GCSL GESTIÓN" style="rounded=1;whiteSpace=wrap;html=1;" parent="1" vertex="1">
          <mxGeometry x="1710" y="240" width="120" height="60" as="geometry" />
        </mxCell>
        <mxCell id="gZ8VsHPKAwq8TQSJoZsJ-56" style="rounded=0;orthogonalLoop=1;jettySize=auto;html=1;" parent="1" source="gZ8VsHPKAwq8TQSJoZsJ-42" target="gZ8VsHPKAwq8TQSJoZsJ-55" edge="1">
          <mxGeometry relative="1" as="geometry" />
        </mxCell>
        <mxCell id="gZ8VsHPKAwq8TQSJoZsJ-42" value="GCSL RESOLUCIÓN" style="rounded=1;whiteSpace=wrap;html=1;" parent="1" vertex="1">
          <mxGeometry x="1700" y="680" width="120" height="60" as="geometry" />
        </mxCell>
        <mxCell id="gZ8VsHPKAwq8TQSJoZsJ-45" style="rounded=0;orthogonalLoop=1;jettySize=auto;html=1;fillColor=#f8cecc;strokeColor=#b85450;" parent="1" source="gZ8VsHPKAwq8TQSJoZsJ-44" target="gZ8VsHPKAwq8TQSJoZsJ-6" edge="1">
          <mxGeometry relative="1" as="geometry" />
        </mxCell>
        <mxCell id="gZ8VsHPKAwq8TQSJoZsJ-46" style="rounded=0;orthogonalLoop=1;jettySize=auto;html=1;fillColor=#f8cecc;strokeColor=#b85450;" parent="1" source="gZ8VsHPKAwq8TQSJoZsJ-44" target="gZ8VsHPKAwq8TQSJoZsJ-7" edge="1">
          <mxGeometry relative="1" as="geometry" />
        </mxCell>
        <mxCell id="gZ8VsHPKAwq8TQSJoZsJ-47" style="rounded=0;orthogonalLoop=1;jettySize=auto;html=1;fillColor=#f8cecc;strokeColor=#b85450;" parent="1" source="gZ8VsHPKAwq8TQSJoZsJ-44" target="gZ8VsHPKAwq8TQSJoZsJ-23" edge="1">
          <mxGeometry relative="1" as="geometry" />
        </mxCell>
        <mxCell id="gZ8VsHPKAwq8TQSJoZsJ-48" style="rounded=0;orthogonalLoop=1;jettySize=auto;html=1;fillColor=#f8cecc;strokeColor=#b85450;" parent="1" source="gZ8VsHPKAwq8TQSJoZsJ-44" target="gZ8VsHPKAwq8TQSJoZsJ-4" edge="1">
          <mxGeometry relative="1" as="geometry" />
        </mxCell>
        <mxCell id="gZ8VsHPKAwq8TQSJoZsJ-49" value="GESTIÓN IMC" style="rounded=1;whiteSpace=wrap;html=1;" parent="1" vertex="1">
          <mxGeometry x="280" y="1070" width="120" height="60" as="geometry" />
        </mxCell>
        <mxCell id="gZ8VsHPKAwq8TQSJoZsJ-54" value="" style="rounded=0;orthogonalLoop=1;jettySize=auto;html=1;fillColor=#dae8fc;strokeColor=#6c8ebf;" parent="1" source="gZ8VsHPKAwq8TQSJoZsJ-8" target="gZ8VsHPKAwq8TQSJoZsJ-44" edge="1">
          <mxGeometry relative="1" as="geometry">
            <mxPoint x="400" y="270" as="sourcePoint" />
            <mxPoint x="680" y="590" as="targetPoint" />
          </mxGeometry>
        </mxCell>
        <mxCell id="gZ8VsHPKAwq8TQSJoZsJ-44" value="GESTIÓN REP" style="rounded=1;whiteSpace=wrap;html=1;" parent="1" vertex="1">
          <mxGeometry x="490" y="500" width="120" height="60" as="geometry" />
        </mxCell>
        <mxCell id="gZ8VsHPKAwq8TQSJoZsJ-55" value="DETALLE GCSL" style="rounded=1;whiteSpace=wrap;html=1;" parent="1" vertex="1">
          <mxGeometry x="1700" y="800" width="120" height="60" as="geometry" />
        </mxCell>
        <mxCell id="gZ8VsHPKAwq8TQSJoZsJ-61" style="rounded=0;orthogonalLoop=1;jettySize=auto;html=1;" parent="1" source="gZ8VsHPKAwq8TQSJoZsJ-59" target="gZ8VsHPKAwq8TQSJoZsJ-23" edge="1">
          <mxGeometry relative="1" as="geometry" />
        </mxCell>
        <mxCell id="gZ8VsHPKAwq8TQSJoZsJ-59" value="GCNT ANULACIÓN" style="rounded=1;whiteSpace=wrap;html=1;" parent="1" vertex="1">
          <mxGeometry x="380" y="600" width="120" height="60" as="geometry" />
        </mxCell>
      </root>
    </mxGraphModel>
  </diagram>
</mxfile>
